<?xml version="1.0" encoding="UTF-8" standalone="no"?>
<!DOCTYPE svg PUBLIC "-//W3C//DTD SVG 1.1//EN" "http://www.w3.org/Graphics/SVG/1.1/DTD/svg11.dtd">
<svg width="100%" height="100%" viewBox="0 0 527 525" version="1.1" xmlns="http://www.w3.org/2000/svg" xmlns:xlink="http://www.w3.org/1999/xlink" xml:space="preserve" xmlns:serif="http://www.serif.com/" style="fill-rule:evenodd;clip-rule:evenodd;stroke-linecap:round;stroke-linejoin:round;stroke-miterlimit:1.5;">
    <g transform="matrix(1,0,0,1,-2934,-35)">
        <g id="_2" serif:id="2" transform="matrix(0.65875,0,0,0.875,2934,35)">
            <rect x="0" y="0" width="800" height="600" style="fill:none;"/>
            <g transform="matrix(1.51803,0,0,1.14286,-1.51803,-142.857)">
                <path d="M515,262.25C515,193.123 458.877,137 389.75,137L139.25,137C70.123,137 14,193.123 14,262.25L14,512.75C14,581.877 70.123,638 139.25,638L389.75,638C458.877,638 515,581.877 515,512.75L515,262.25Z" style="fill:none;stroke:rgb(255,0,10);stroke-width:5.91px;"/>
            </g>
            <g transform="matrix(1.80773,0,0,1.36096,-2224.92,-42.4427)">
                <circle cx="1444.5" cy="181.5" r="65.5" style="fill:rgb(255,0,9);"/>
            </g>
            <g transform="matrix(1.51803,0,0,1.14286,-5203.8,-1034.65)">
                <path d="M3587.5,1294L3587.5,1223.48C3587.5,1198.16 3600.16,1175.78 3619.48,1162.32C3629.1,1183.68 3655.04,1199 3685.5,1199C3715.96,1199 3741.9,1183.68 3751.52,1162.32C3770.84,1175.78 3783.5,1198.16 3783.5,1223.48L3783.5,1294L3587.5,1294Z" style="fill:rgb(255,0,9);"/>
            </g>
        </g>
    </g>
</svg>
