<?xml version="1.0" encoding="UTF-8" standalone="no"?>
<!DOCTYPE svg PUBLIC "-//W3C//DTD SVG 1.1//EN" "http://www.w3.org/Graphics/SVG/1.1/DTD/svg11.dtd">
<svg width="100%" height="100%" viewBox="0 0 527 525" version="1.1" xmlns="http://www.w3.org/2000/svg" xmlns:xlink="http://www.w3.org/1999/xlink" xml:space="preserve" xmlns:serif="http://www.serif.com/" style="fill-rule:evenodd;clip-rule:evenodd;stroke-linecap:round;stroke-linejoin:round;stroke-miterlimit:1.5;">
    <g transform="matrix(1,0,0,1,-649,0)">
        <g id="_1" serif:id="1" transform="matrix(0.65875,0,0,0.875,649,0)">
            <rect x="0" y="0" width="800" height="600" style="fill:none;"/>
            <g transform="matrix(1.51803,0,0,1.14286,-1.51803,-142.857)">
                <path d="M515,262.25C515,193.123 458.877,137 389.75,137L139.25,137C70.123,137 14,193.123 14,262.25L14,512.75C14,581.877 70.123,638 139.25,638L389.75,638C458.877,638 515,581.877 515,512.75L515,262.25Z" style="fill:none;stroke:rgb(255,0,10);stroke-width:5.91px;"/>
            </g>
            <g transform="matrix(1.51803,0,0,1.14286,-868.311,-5.71429)">
                <path d="M887.719,442L764.268,442C726.59,442 696,411.41 696,373.732L696,158.268C696,120.59 726.59,90 764.268,90L900.804,90C938.482,90 969.072,120.59 969.072,158.268L969.072,317.217C964.177,316.417 959.142,316 954,316C907.087,316 869,350.727 869,393.5C869,411.85 876.01,428.719 887.719,442Z" style="fill:none;stroke:rgb(255,0,10);stroke-width:5.91px;"/>
            </g>
            <g transform="matrix(1.36457,-1.01347,1.33714,1.02043,-532.859,396.979)">
                <path d="M414.435,399.435L418.565,403.565L391.13,431L418.565,458.435L414.435,462.565L387,435.13L359.565,462.565L355.435,458.435L382.87,431L355.435,403.565L359.565,399.435L387,426.87L414.435,399.435Z" style="fill:rgb(255,0,9);"/>
            </g>
            <g transform="matrix(1.51803,0,0,1.14286,3.03605,-26.2857)">
                <circle cx="373" cy="411" r="77" style="fill:none;stroke:rgb(255,0,10);stroke-width:3.26px;"/>
            </g>
            <g transform="matrix(1.63259,0,0,1.14286,-58.1433,-18.2857)">
                <path d="M375,157C375,155.896 374.167,155 373.14,155L217.86,155C216.833,155 216,155.896 216,157L216,161C216,162.104 216.833,163 217.86,163L373.14,163C374.167,163 375,162.104 375,161L375,157Z" style="fill:rgb(255,0,9);"/>
            </g>
            <g transform="matrix(1.89037,0,0,1.14286,-162.4,69.3333)">
                <path d="M375,157C375,155.896 374.28,155 373.394,155L217.606,155C216.72,155 216,155.896 216,157L216,161C216,162.104 216.72,163 217.606,163L373.394,163C374.28,163 375,162.104 375,161L375,157Z" style="fill:rgb(255,0,9);"/>
            </g>
            <g transform="matrix(1.64214,0,0,1.14286,-113.336,156.952)">
                <path d="M375,157C375,155.896 374.172,155 373.151,155L217.849,155C216.828,155 216,155.896 216,157L216,161C216,162.104 216.828,163 217.849,163L373.151,163C374.172,163 375,162.104 375,161L375,157Z" style="fill:rgb(255,0,9);"/>
            </g>
            <g transform="matrix(0.916544,0,0,1.14286,44.9107,244.571)">
                <path d="M375,157C375,155.896 373.516,155 371.687,155L219.313,155C217.484,155 216,155.896 216,157L216,161C216,162.104 217.484,163 219.313,163L371.687,163C373.516,163 375,162.104 375,161L375,157Z" style="fill:rgb(255,0,9);"/>
            </g>
        </g>
    </g>
</svg>
