<?xml version="1.0" encoding="UTF-8" standalone="no"?>
<!DOCTYPE svg PUBLIC "-//W3C//DTD SVG 1.1//EN" "http://www.w3.org/Graphics/SVG/1.1/DTD/svg11.dtd">
<svg width="100%" height="100%" viewBox="0 0 527 525" version="1.1" xmlns="http://www.w3.org/2000/svg" xmlns:xlink="http://www.w3.org/1999/xlink" xml:space="preserve" xmlns:serif="http://www.serif.com/" style="fill-rule:evenodd;clip-rule:evenodd;stroke-linecap:round;stroke-linejoin:round;stroke-miterlimit:1.5;">
    <g transform="matrix(1,0,0,1,-1797,-9)">
        <g id="Multiple" transform="matrix(0.65875,0,0,0.875,1797,9)">
            <rect x="0" y="0" width="800" height="600" style="fill:none;"/>
            <g transform="matrix(1.51803,0,0,1.14286,-1.51803,-142.857)">
                <path d="M515,262.25C515,193.123 458.877,137 389.75,137L139.25,137C70.123,137 14,193.123 14,262.25L14,512.75C14,581.877 70.123,638 139.25,638L389.75,638C458.877,638 515,581.877 515,512.75L515,262.25Z" style="fill:none;stroke:rgb(255,0,10);stroke-width:5.91px;"/>
            </g>
            <g transform="matrix(1.48439,0,0,1.11754,-1730.79,2.93726)">
                <circle cx="1444.5" cy="181.5" r="65.5" style="fill:rgb(255,0,9);"/>
            </g>
            <g transform="matrix(1.51803,0,0,1.14286,-2611.01,-16)">
                <path d="M1912.87,354.992L1912.87,297.085C1912.87,276.296 1923.26,257.916 1939.13,246.866C1947.03,264.405 1968.33,276.984 1993.34,276.984C2018.35,276.984 2039.65,264.405 2047.55,246.866C2063.41,257.916 2073.81,276.296 2073.81,297.085L2073.81,354.992L1912.87,354.992Z" style="fill:rgb(255,0,9);"/>
            </g>
            <g transform="matrix(1.17576,0,0,0.885177,-1057.43,112.177)">
                <circle cx="1444.5" cy="181.5" r="65.5" style="fill:rgb(255,0,9);"/>
            </g>
            <g transform="matrix(1.51803,0,0,1.14286,-2611.01,-16)">
                <path d="M2078.49,380.211L2078.49,334.345C2078.49,317.878 2086.72,303.319 2099.29,294.567C2105.54,308.46 2122.42,318.423 2142.23,318.423C2162.04,318.423 2178.91,308.46 2185.16,294.567C2197.73,303.319 2205.97,317.878 2205.97,334.345L2205.97,380.211L2078.49,380.211Z" style="fill:rgb(255,0,9);"/>
            </g>
            <g transform="matrix(1.17576,0,0,0.885177,-1511.32,107.605)">
                <circle cx="1444.5" cy="181.5" r="65.5" style="fill:rgb(255,0,9);"/>
            </g>
            <g transform="matrix(1.51803,0,0,1.14286,-2611.01,-16)">
                <path d="M1779.49,376.211L1779.49,330.345C1779.49,313.878 1787.72,299.319 1800.29,290.567C1806.54,304.46 1823.42,314.423 1843.23,314.423C1863.04,314.423 1879.91,304.46 1886.16,290.567C1898.73,299.319 1906.97,313.878 1906.97,330.345L1906.97,376.211L1779.49,376.211Z" style="fill:rgb(255,0,9);"/>
            </g>
        </g>
    </g>
</svg>
