<?xml version="1.0" encoding="UTF-8" standalone="no"?>
<!DOCTYPE svg PUBLIC "-//W3C//DTD SVG 1.1//EN" "http://www.w3.org/Graphics/SVG/1.1/DTD/svg11.dtd">
<svg width="100%" height="100%" viewBox="0 0 792 255" version="1.1" xmlns="http://www.w3.org/2000/svg" xmlns:xlink="http://www.w3.org/1999/xlink" xml:space="preserve" xmlns:serif="http://www.serif.com/" style="fill-rule:evenodd;clip-rule:evenodd;stroke-linecap:round;stroke-linejoin:round;stroke-miterlimit:1.5;">
    <g id="Artboard1" transform="matrix(0.99,0,0,0.425,0,0)">
        <rect x="0" y="0" width="800" height="600" style="fill:none;"/>
        <g transform="matrix(1.0101,0,0,2.35294,108.081,-204.706)">
            <circle cx="572.5" cy="202.5" r="111.5" style="fill:rgb(255,181,0);"/>
        </g>
        <g transform="matrix(1.342,0,0,3.94777,-101.384,-278.911)">
            <g transform="matrix(124.248,0,0,124.248,82,176)">
                <path d="M0.279,-0.382C0.31,-0.371 0.333,-0.357 0.349,-0.341C0.375,-0.313 0.389,-0.28 0.389,-0.243C0.389,-0.199 0.375,-0.156 0.348,-0.116C0.323,-0.079 0.29,-0.05 0.251,-0.029C0.211,-0.007 0.17,0.003 0.128,0.003C0.096,0.003 0.061,-0.005 0.023,-0.021C0.02,-0.013 0.018,-0.007 0.018,-0.004C0.013,0.011 0.007,0.019 -0.002,0.019C-0.012,0.019 -0.02,0.014 -0.027,0.003C-0.032,-0.005 -0.034,-0.012 -0.034,-0.02C-0.034,-0.031 -0.027,-0.055 -0.013,-0.092C0.017,-0.167 0.042,-0.225 0.064,-0.268C0.078,-0.294 0.106,-0.345 0.149,-0.418C0.168,-0.45 0.195,-0.494 0.231,-0.549C0.239,-0.562 0.248,-0.575 0.255,-0.588C0.239,-0.583 0.219,-0.575 0.194,-0.563C0.174,-0.553 0.161,-0.548 0.158,-0.548C0.153,-0.548 0.149,-0.551 0.145,-0.556C0.141,-0.561 0.14,-0.566 0.14,-0.573C0.14,-0.583 0.143,-0.59 0.15,-0.595C0.162,-0.604 0.184,-0.614 0.216,-0.627C0.283,-0.654 0.337,-0.668 0.378,-0.668C0.412,-0.668 0.44,-0.659 0.462,-0.642C0.483,-0.625 0.494,-0.603 0.494,-0.577C0.494,-0.523 0.463,-0.477 0.401,-0.438C0.363,-0.415 0.323,-0.396 0.279,-0.382ZM0.206,-0.413C0.261,-0.423 0.313,-0.442 0.362,-0.472C0.419,-0.506 0.447,-0.54 0.447,-0.574C0.447,-0.589 0.44,-0.602 0.425,-0.61C0.415,-0.616 0.401,-0.619 0.384,-0.619C0.372,-0.619 0.36,-0.618 0.347,-0.615C0.334,-0.613 0.32,-0.609 0.306,-0.604C0.311,-0.6 0.314,-0.595 0.314,-0.589C0.314,-0.58 0.309,-0.569 0.298,-0.555C0.294,-0.55 0.288,-0.54 0.278,-0.526C0.275,-0.52 0.264,-0.503 0.246,-0.477C0.228,-0.45 0.215,-0.429 0.206,-0.413ZM0.037,-0.063C0.048,-0.056 0.056,-0.052 0.061,-0.05C0.075,-0.045 0.094,-0.042 0.117,-0.042C0.186,-0.042 0.242,-0.069 0.283,-0.125C0.319,-0.171 0.336,-0.217 0.336,-0.262C0.336,-0.292 0.323,-0.317 0.296,-0.334C0.28,-0.345 0.261,-0.35 0.24,-0.35C0.232,-0.35 0.22,-0.348 0.204,-0.345C0.201,-0.344 0.198,-0.344 0.195,-0.344C0.187,-0.344 0.181,-0.349 0.175,-0.361C0.149,-0.321 0.12,-0.266 0.087,-0.194C0.071,-0.158 0.054,-0.114 0.037,-0.063Z" style="fill:rgb(255,0,43);fill-rule:nonzero;"/>
            </g>
            <g transform="matrix(124.248,0,0,124.248,137.572,176)">
                <path d="M0.1,-0.331C0.105,-0.331 0.11,-0.328 0.113,-0.324C0.116,-0.321 0.117,-0.317 0.117,-0.313C0.117,-0.308 0.112,-0.298 0.103,-0.284C0.069,-0.232 0.045,-0.189 0.031,-0.155C0.015,-0.12 0.002,-0.084 -0.01,-0.047C-0.015,-0.031 -0.023,-0.023 -0.034,-0.023C-0.041,-0.023 -0.046,-0.026 -0.05,-0.031C-0.053,-0.035 -0.055,-0.04 -0.055,-0.044C-0.055,-0.054 -0.045,-0.087 -0.024,-0.142C-0.008,-0.186 0.019,-0.234 0.055,-0.287C0.067,-0.304 0.076,-0.315 0.082,-0.321C0.087,-0.327 0.093,-0.331 0.1,-0.331ZM0.192,-0.512C0.207,-0.512 0.214,-0.504 0.214,-0.489C0.214,-0.476 0.207,-0.46 0.193,-0.444C0.179,-0.428 0.166,-0.42 0.153,-0.42C0.147,-0.42 0.142,-0.422 0.138,-0.427C0.134,-0.431 0.132,-0.436 0.132,-0.442C0.132,-0.458 0.141,-0.475 0.158,-0.492C0.171,-0.505 0.182,-0.512 0.192,-0.512Z" style="fill:rgb(255,0,43);fill-rule:nonzero;"/>
            </g>
            <g transform="matrix(124.248,0,0,124.248,153.952,176)">
                <path d="M0.008,-0.095C0.038,-0.105 0.064,-0.11 0.086,-0.11C0.124,-0.11 0.143,-0.1 0.143,-0.081C0.143,-0.075 0.141,-0.069 0.136,-0.064C0.132,-0.06 0.126,-0.057 0.121,-0.057C0.117,-0.057 0.109,-0.059 0.098,-0.062C0.091,-0.063 0.084,-0.064 0.078,-0.064C0.05,-0.064 0.024,-0.059 -0.001,-0.047C-0.019,-0.038 -0.03,-0.034 -0.036,-0.034C-0.044,-0.034 -0.05,-0.037 -0.056,-0.042C-0.061,-0.046 -0.063,-0.051 -0.063,-0.057C-0.063,-0.07 -0.048,-0.097 -0.016,-0.137C0.032,-0.197 0.083,-0.248 0.136,-0.29C0.101,-0.285 0.076,-0.283 0.063,-0.283C0.032,-0.283 0.017,-0.292 0.017,-0.311C0.017,-0.317 0.019,-0.322 0.022,-0.326C0.026,-0.329 0.03,-0.331 0.035,-0.331C0.039,-0.331 0.047,-0.33 0.061,-0.328C0.066,-0.327 0.074,-0.326 0.084,-0.326C0.112,-0.326 0.14,-0.329 0.166,-0.335C0.176,-0.338 0.185,-0.339 0.192,-0.339C0.2,-0.339 0.207,-0.336 0.212,-0.33C0.217,-0.326 0.219,-0.321 0.219,-0.314C0.219,-0.304 0.21,-0.292 0.191,-0.279C0.138,-0.237 0.1,-0.205 0.079,-0.182C0.048,-0.149 0.024,-0.12 0.008,-0.095Z" style="fill:rgb(255,0,43);fill-rule:nonzero;"/>
            </g>
            <g transform="matrix(124.248,0,0,124.248,181.192,176)">
                <path d="M0.062,-0.206C0.066,-0.209 0.07,-0.213 0.074,-0.217C0.142,-0.284 0.188,-0.317 0.211,-0.317C0.224,-0.317 0.23,-0.31 0.23,-0.296C0.23,-0.286 0.224,-0.275 0.213,-0.261C0.151,-0.189 0.12,-0.125 0.12,-0.069C0.12,-0.051 0.125,-0.034 0.134,-0.018C0.139,-0.011 0.141,-0.005 0.141,0C0.141,0.003 0.139,0.007 0.135,0.011C0.131,0.015 0.126,0.018 0.12,0.018C0.107,0.018 0.096,0.009 0.086,-0.008C0.078,-0.024 0.073,-0.043 0.073,-0.066C0.073,-0.11 0.09,-0.159 0.123,-0.212C0.079,-0.184 0.038,-0.133 0,-0.062C-0.01,-0.044 -0.021,-0.036 -0.032,-0.036C-0.037,-0.036 -0.042,-0.038 -0.045,-0.042C-0.05,-0.046 -0.052,-0.052 -0.052,-0.059C-0.052,-0.077 -0.032,-0.123 0.008,-0.197C0.029,-0.238 0.046,-0.267 0.059,-0.285C0.071,-0.303 0.082,-0.312 0.09,-0.312C0.095,-0.312 0.099,-0.31 0.103,-0.306C0.107,-0.302 0.109,-0.296 0.109,-0.291C0.109,-0.283 0.105,-0.273 0.095,-0.26C0.082,-0.24 0.07,-0.222 0.062,-0.206Z" style="fill:rgb(255,0,43);fill-rule:nonzero;"/>
            </g>
            <g transform="matrix(124.248,0,0,124.248,213.164,176)">
                <path d="M0.01,-0.132L0.01,-0.123C0.01,-0.116 0.012,-0.11 0.015,-0.104C0.023,-0.092 0.037,-0.086 0.055,-0.086C0.096,-0.086 0.143,-0.118 0.196,-0.18C0.206,-0.191 0.214,-0.196 0.22,-0.196C0.224,-0.196 0.227,-0.194 0.23,-0.191C0.232,-0.188 0.233,-0.186 0.233,-0.184C0.233,-0.171 0.217,-0.149 0.186,-0.119C0.162,-0.095 0.136,-0.076 0.108,-0.061C0.08,-0.046 0.055,-0.039 0.031,-0.039C0.006,-0.039 -0.013,-0.047 -0.027,-0.064C-0.036,-0.076 -0.041,-0.092 -0.041,-0.112C-0.041,-0.167 -0.015,-0.221 0.037,-0.273C0.079,-0.316 0.115,-0.338 0.146,-0.338C0.155,-0.338 0.163,-0.335 0.169,-0.33C0.178,-0.323 0.182,-0.314 0.182,-0.303C0.182,-0.286 0.174,-0.265 0.158,-0.24C0.125,-0.188 0.076,-0.152 0.01,-0.132ZM0.021,-0.17C0.043,-0.178 0.061,-0.187 0.074,-0.196C0.097,-0.214 0.115,-0.234 0.128,-0.256C0.133,-0.264 0.136,-0.271 0.136,-0.277C0.136,-0.283 0.133,-0.287 0.126,-0.287C0.118,-0.287 0.106,-0.28 0.09,-0.268C0.062,-0.245 0.039,-0.213 0.021,-0.17Z" style="fill:rgb(255,0,43);fill-rule:nonzero;"/>
            </g>
            <g transform="matrix(124.248,0,0,124.248,247.26,176)">
                <path d="M0.196,-0.362C0.216,-0.362 0.231,-0.359 0.241,-0.352C0.251,-0.344 0.256,-0.333 0.256,-0.319C0.256,-0.3 0.249,-0.281 0.235,-0.263C0.221,-0.246 0.201,-0.233 0.173,-0.222C0.158,-0.217 0.146,-0.214 0.136,-0.214C0.122,-0.214 0.115,-0.22 0.115,-0.232C0.115,-0.24 0.119,-0.246 0.127,-0.25C0.129,-0.251 0.14,-0.254 0.16,-0.259C0.172,-0.261 0.183,-0.267 0.193,-0.276C0.202,-0.283 0.207,-0.292 0.207,-0.3C0.207,-0.307 0.205,-0.312 0.201,-0.315C0.197,-0.319 0.191,-0.32 0.183,-0.32C0.164,-0.32 0.143,-0.313 0.121,-0.297C0.094,-0.28 0.081,-0.26 0.081,-0.236C0.081,-0.219 0.09,-0.198 0.107,-0.172C0.126,-0.145 0.136,-0.121 0.136,-0.102C0.136,-0.073 0.123,-0.051 0.098,-0.035C0.082,-0.025 0.064,-0.02 0.044,-0.02C0.013,-0.02 -0.011,-0.031 -0.027,-0.053C-0.038,-0.069 -0.044,-0.088 -0.044,-0.11C-0.044,-0.135 -0.037,-0.157 -0.024,-0.174C-0.016,-0.185 -0.007,-0.191 0.002,-0.191C0.01,-0.191 0.014,-0.188 0.014,-0.181C0.014,-0.179 0.013,-0.175 0.01,-0.169C0.002,-0.155 -0.001,-0.139 -0.001,-0.12C-0.001,-0.104 0.004,-0.091 0.016,-0.08C0.026,-0.07 0.037,-0.065 0.05,-0.065C0.063,-0.065 0.073,-0.069 0.08,-0.078C0.086,-0.085 0.089,-0.094 0.089,-0.105C0.089,-0.119 0.081,-0.136 0.065,-0.158C0.044,-0.188 0.033,-0.215 0.033,-0.24C0.033,-0.272 0.051,-0.301 0.086,-0.326C0.121,-0.35 0.157,-0.362 0.196,-0.362Z" style="fill:rgb(255,0,43);fill-rule:nonzero;"/>
            </g>
            <g transform="matrix(124.248,0,0,124.248,309.93,176)">
                <path d="M0.142,-0.174C0.114,-0.137 0.093,-0.111 0.08,-0.096C0.063,-0.078 0.049,-0.065 0.037,-0.055C0.023,-0.045 0.01,-0.04 -0.001,-0.04C-0.013,-0.04 -0.022,-0.046 -0.028,-0.057C-0.033,-0.066 -0.035,-0.076 -0.035,-0.086C-0.035,-0.122 -0.014,-0.171 0.028,-0.233C0.067,-0.289 0.095,-0.317 0.114,-0.317C0.118,-0.317 0.123,-0.315 0.127,-0.311C0.131,-0.307 0.133,-0.303 0.133,-0.297C0.133,-0.29 0.126,-0.28 0.114,-0.268C0.087,-0.241 0.063,-0.211 0.043,-0.177C0.027,-0.149 0.018,-0.13 0.018,-0.121C0.018,-0.115 0.021,-0.111 0.027,-0.111C0.046,-0.111 0.089,-0.154 0.154,-0.238C0.175,-0.266 0.188,-0.281 0.192,-0.286C0.201,-0.293 0.209,-0.297 0.218,-0.297C0.224,-0.297 0.229,-0.296 0.233,-0.292C0.237,-0.289 0.239,-0.286 0.239,-0.282C0.239,-0.278 0.231,-0.262 0.215,-0.233C0.18,-0.17 0.162,-0.128 0.162,-0.106C0.162,-0.098 0.166,-0.094 0.172,-0.094C0.184,-0.094 0.2,-0.107 0.221,-0.134C0.24,-0.16 0.258,-0.192 0.275,-0.231C0.282,-0.248 0.288,-0.27 0.294,-0.298C0.3,-0.329 0.313,-0.345 0.333,-0.345C0.344,-0.345 0.35,-0.339 0.35,-0.327C0.35,-0.284 0.326,-0.225 0.278,-0.151C0.229,-0.073 0.187,-0.034 0.153,-0.034C0.128,-0.034 0.116,-0.05 0.116,-0.081C0.116,-0.106 0.124,-0.137 0.142,-0.174Z" style="fill:rgb(255,0,43);fill-rule:nonzero;"/>
            </g>
            <g transform="matrix(124.248,0,0,124.248,387.949,176)">
                <path d="M0.34,-0.338C0.273,-0.325 0.204,-0.304 0.132,-0.275C0.129,-0.27 0.127,-0.264 0.124,-0.259C0.079,-0.173 0.049,-0.091 0.033,-0.014C0.03,0.005 0.023,0.014 0.011,0.014C0.003,0.014 -0.005,0.009 -0.011,0.001C-0.016,-0.006 -0.019,-0.013 -0.019,-0.02C-0.019,-0.029 -0.015,-0.048 -0.007,-0.077C0.001,-0.106 0.01,-0.131 0.019,-0.153C0.022,-0.161 0.032,-0.185 0.049,-0.224C0.054,-0.234 0.058,-0.243 0.062,-0.254C0.055,-0.251 0.046,-0.247 0.034,-0.242C0.028,-0.24 0.024,-0.239 0.02,-0.239C0.009,-0.239 0.004,-0.246 0.004,-0.262C0.004,-0.272 0.009,-0.279 0.017,-0.285C0.024,-0.289 0.035,-0.294 0.052,-0.3C0.069,-0.306 0.083,-0.312 0.093,-0.316C0.1,-0.327 0.112,-0.351 0.13,-0.386C0.134,-0.393 0.145,-0.411 0.163,-0.442C0.216,-0.531 0.251,-0.595 0.267,-0.632C0.281,-0.667 0.29,-0.686 0.294,-0.69C0.3,-0.699 0.308,-0.703 0.317,-0.703C0.333,-0.703 0.34,-0.696 0.34,-0.681C0.34,-0.646 0.294,-0.554 0.201,-0.404C0.185,-0.379 0.174,-0.358 0.167,-0.339L0.191,-0.346C0.258,-0.365 0.318,-0.382 0.373,-0.396C0.41,-0.465 0.456,-0.542 0.51,-0.626C0.52,-0.641 0.525,-0.65 0.527,-0.654C0.535,-0.668 0.543,-0.675 0.552,-0.675C0.559,-0.675 0.565,-0.672 0.57,-0.666C0.574,-0.66 0.576,-0.655 0.576,-0.648C0.576,-0.637 0.57,-0.62 0.557,-0.598C0.554,-0.593 0.541,-0.572 0.517,-0.536C0.475,-0.471 0.449,-0.428 0.438,-0.406C0.448,-0.407 0.455,-0.408 0.46,-0.408C0.486,-0.408 0.499,-0.401 0.499,-0.389C0.499,-0.381 0.494,-0.373 0.486,-0.366C0.48,-0.36 0.473,-0.357 0.466,-0.357L0.447,-0.357C0.439,-0.357 0.427,-0.355 0.412,-0.353C0.343,-0.229 0.298,-0.122 0.276,-0.029C0.271,-0.008 0.263,0.002 0.252,0.002C0.243,0.002 0.236,-0.003 0.228,-0.014C0.223,-0.021 0.221,-0.029 0.221,-0.038C0.221,-0.069 0.261,-0.169 0.34,-0.338Z" style="fill:rgb(255,0,43);fill-rule:nonzero;"/>
            </g>
            <g transform="matrix(124.248,0,0,124.248,445.037,176)">
                <path d="M0.1,-0.331C0.105,-0.331 0.11,-0.328 0.113,-0.324C0.116,-0.321 0.117,-0.317 0.117,-0.313C0.117,-0.308 0.112,-0.298 0.103,-0.284C0.069,-0.232 0.045,-0.189 0.031,-0.155C0.015,-0.12 0.002,-0.084 -0.01,-0.047C-0.015,-0.031 -0.023,-0.023 -0.034,-0.023C-0.041,-0.023 -0.046,-0.026 -0.05,-0.031C-0.053,-0.035 -0.055,-0.04 -0.055,-0.044C-0.055,-0.054 -0.045,-0.087 -0.024,-0.142C-0.008,-0.186 0.019,-0.234 0.055,-0.287C0.067,-0.304 0.076,-0.315 0.082,-0.321C0.087,-0.327 0.093,-0.331 0.1,-0.331ZM0.192,-0.512C0.207,-0.512 0.214,-0.504 0.214,-0.489C0.214,-0.476 0.207,-0.46 0.193,-0.444C0.179,-0.428 0.166,-0.42 0.153,-0.42C0.147,-0.42 0.142,-0.422 0.138,-0.427C0.134,-0.431 0.132,-0.436 0.132,-0.442C0.132,-0.458 0.141,-0.475 0.158,-0.492C0.171,-0.505 0.182,-0.512 0.192,-0.512Z" style="fill:rgb(255,0,43);fill-rule:nonzero;"/>
            </g>
            <g transform="matrix(124.248,0,0,124.248,461.418,176)">
                <path d="M0.196,-0.362C0.216,-0.362 0.231,-0.359 0.241,-0.352C0.251,-0.344 0.256,-0.333 0.256,-0.319C0.256,-0.3 0.249,-0.281 0.235,-0.263C0.221,-0.246 0.201,-0.233 0.173,-0.222C0.158,-0.217 0.146,-0.214 0.136,-0.214C0.122,-0.214 0.115,-0.22 0.115,-0.232C0.115,-0.24 0.119,-0.246 0.127,-0.25C0.129,-0.251 0.14,-0.254 0.16,-0.259C0.172,-0.261 0.183,-0.267 0.193,-0.276C0.202,-0.283 0.207,-0.292 0.207,-0.3C0.207,-0.307 0.205,-0.312 0.201,-0.315C0.197,-0.319 0.191,-0.32 0.183,-0.32C0.164,-0.32 0.143,-0.313 0.121,-0.297C0.094,-0.28 0.081,-0.26 0.081,-0.236C0.081,-0.219 0.09,-0.198 0.107,-0.172C0.126,-0.145 0.136,-0.121 0.136,-0.102C0.136,-0.073 0.123,-0.051 0.098,-0.035C0.082,-0.025 0.064,-0.02 0.044,-0.02C0.013,-0.02 -0.011,-0.031 -0.027,-0.053C-0.038,-0.069 -0.044,-0.088 -0.044,-0.11C-0.044,-0.135 -0.037,-0.157 -0.024,-0.174C-0.016,-0.185 -0.007,-0.191 0.002,-0.191C0.01,-0.191 0.014,-0.188 0.014,-0.181C0.014,-0.179 0.013,-0.175 0.01,-0.169C0.002,-0.155 -0.001,-0.139 -0.001,-0.12C-0.001,-0.104 0.004,-0.091 0.016,-0.08C0.026,-0.07 0.037,-0.065 0.05,-0.065C0.063,-0.065 0.073,-0.069 0.08,-0.078C0.086,-0.085 0.089,-0.094 0.089,-0.105C0.089,-0.119 0.081,-0.136 0.065,-0.158C0.044,-0.188 0.033,-0.215 0.033,-0.24C0.033,-0.272 0.051,-0.301 0.086,-0.326C0.121,-0.35 0.157,-0.362 0.196,-0.362Z" style="fill:rgb(255,0,43);fill-rule:nonzero;"/>
            </g>
            <g transform="matrix(124.248,0,0,124.248,493.026,176)">
                <path d="M0.008,-0.095C0.038,-0.105 0.064,-0.11 0.086,-0.11C0.124,-0.11 0.143,-0.1 0.143,-0.081C0.143,-0.075 0.141,-0.069 0.136,-0.064C0.132,-0.06 0.126,-0.057 0.121,-0.057C0.117,-0.057 0.109,-0.059 0.098,-0.062C0.091,-0.063 0.084,-0.064 0.078,-0.064C0.05,-0.064 0.024,-0.059 -0.001,-0.047C-0.019,-0.038 -0.03,-0.034 -0.036,-0.034C-0.044,-0.034 -0.05,-0.037 -0.056,-0.042C-0.061,-0.046 -0.063,-0.051 -0.063,-0.057C-0.063,-0.07 -0.048,-0.097 -0.016,-0.137C0.032,-0.197 0.083,-0.248 0.136,-0.29C0.101,-0.285 0.076,-0.283 0.063,-0.283C0.032,-0.283 0.017,-0.292 0.017,-0.311C0.017,-0.317 0.019,-0.322 0.022,-0.326C0.026,-0.329 0.03,-0.331 0.035,-0.331C0.039,-0.331 0.047,-0.33 0.061,-0.328C0.066,-0.327 0.074,-0.326 0.084,-0.326C0.112,-0.326 0.14,-0.329 0.166,-0.335C0.176,-0.338 0.185,-0.339 0.192,-0.339C0.2,-0.339 0.207,-0.336 0.212,-0.33C0.217,-0.326 0.219,-0.321 0.219,-0.314C0.219,-0.304 0.21,-0.292 0.191,-0.279C0.138,-0.237 0.1,-0.205 0.079,-0.182C0.048,-0.149 0.024,-0.12 0.008,-0.095Z" style="fill:rgb(255,0,43);fill-rule:nonzero;"/>
            </g>
            <g transform="matrix(124.248,0,0,124.248,520.266,176)">
                <path d="M0.112,-0.297C0.126,-0.306 0.136,-0.312 0.142,-0.315C0.155,-0.321 0.168,-0.325 0.181,-0.325C0.195,-0.325 0.206,-0.321 0.213,-0.312C0.221,-0.304 0.224,-0.292 0.224,-0.275C0.224,-0.252 0.216,-0.225 0.2,-0.193C0.175,-0.142 0.146,-0.103 0.11,-0.074C0.081,-0.049 0.053,-0.037 0.027,-0.037C0.013,-0.037 -0.002,-0.043 -0.016,-0.054C-0.06,0.036 -0.1,0.128 -0.135,0.222C-0.143,0.245 -0.152,0.256 -0.162,0.256C-0.167,0.256 -0.171,0.253 -0.176,0.246C-0.18,0.242 -0.182,0.236 -0.182,0.231C-0.182,0.213 -0.16,0.156 -0.117,0.06C-0.051,-0.09 0.012,-0.213 0.072,-0.312C0.084,-0.333 0.092,-0.347 0.097,-0.355C0.108,-0.376 0.119,-0.387 0.13,-0.387C0.141,-0.387 0.146,-0.38 0.146,-0.367C0.146,-0.359 0.143,-0.349 0.135,-0.336C0.125,-0.32 0.118,-0.307 0.112,-0.297ZM0.002,-0.095C0.01,-0.087 0.019,-0.083 0.029,-0.083C0.06,-0.083 0.093,-0.11 0.13,-0.164C0.144,-0.184 0.154,-0.204 0.163,-0.225C0.169,-0.242 0.172,-0.254 0.172,-0.263C0.172,-0.269 0.171,-0.273 0.168,-0.276C0.165,-0.279 0.161,-0.28 0.155,-0.28C0.14,-0.28 0.121,-0.27 0.099,-0.249C0.078,-0.228 0.058,-0.199 0.038,-0.162C0.02,-0.128 0.008,-0.105 0.002,-0.095Z" style="fill:rgb(255,0,43);fill-rule:nonzero;"/>
            </g>
            <g transform="matrix(124.248,0,0,124.248,553.027,176)">
                <path d="M0.115,-0.119C0.104,-0.1 0.094,-0.084 0.083,-0.071C0.063,-0.045 0.043,-0.033 0.022,-0.033C0.005,-0.033 -0.009,-0.041 -0.019,-0.058C-0.025,-0.068 -0.028,-0.081 -0.028,-0.096C-0.028,-0.132 -0.016,-0.172 0.006,-0.215C0.032,-0.264 0.062,-0.301 0.098,-0.327C0.122,-0.344 0.144,-0.353 0.166,-0.353C0.18,-0.353 0.191,-0.348 0.2,-0.34C0.208,-0.332 0.212,-0.324 0.212,-0.314C0.212,-0.307 0.209,-0.297 0.204,-0.285C0.208,-0.278 0.211,-0.272 0.211,-0.267C0.211,-0.26 0.206,-0.249 0.197,-0.233C0.188,-0.217 0.178,-0.196 0.169,-0.169C0.159,-0.141 0.154,-0.119 0.154,-0.102C0.154,-0.088 0.158,-0.077 0.166,-0.068C0.168,-0.066 0.175,-0.062 0.186,-0.057C0.194,-0.053 0.198,-0.046 0.198,-0.037C0.198,-0.03 0.196,-0.025 0.191,-0.021C0.187,-0.017 0.181,-0.015 0.174,-0.015C0.157,-0.015 0.142,-0.023 0.129,-0.039C0.118,-0.051 0.113,-0.067 0.113,-0.086C0.113,-0.093 0.114,-0.104 0.115,-0.119ZM0.176,-0.279C0.172,-0.286 0.168,-0.292 0.164,-0.295C0.159,-0.299 0.154,-0.3 0.149,-0.3C0.124,-0.3 0.097,-0.279 0.068,-0.235C0.036,-0.188 0.021,-0.147 0.021,-0.114C0.021,-0.106 0.022,-0.099 0.025,-0.095C0.028,-0.091 0.033,-0.089 0.039,-0.089C0.055,-0.089 0.073,-0.105 0.094,-0.139C0.105,-0.157 0.12,-0.184 0.137,-0.219C0.149,-0.242 0.157,-0.258 0.162,-0.265C0.165,-0.269 0.169,-0.274 0.176,-0.279Z" style="fill:rgb(255,0,43);fill-rule:nonzero;"/>
            </g>
            <g transform="matrix(124.248,0,0,124.248,585.181,176)">
                <path d="M0.062,-0.206C0.066,-0.209 0.07,-0.213 0.074,-0.217C0.142,-0.284 0.188,-0.317 0.211,-0.317C0.224,-0.317 0.23,-0.31 0.23,-0.296C0.23,-0.286 0.224,-0.275 0.213,-0.261C0.151,-0.189 0.12,-0.125 0.12,-0.069C0.12,-0.051 0.125,-0.034 0.134,-0.018C0.139,-0.011 0.141,-0.005 0.141,0C0.141,0.003 0.139,0.007 0.135,0.011C0.131,0.015 0.126,0.018 0.12,0.018C0.107,0.018 0.096,0.009 0.086,-0.008C0.078,-0.024 0.073,-0.043 0.073,-0.066C0.073,-0.11 0.09,-0.159 0.123,-0.212C0.079,-0.184 0.038,-0.133 0,-0.062C-0.01,-0.044 -0.021,-0.036 -0.032,-0.036C-0.037,-0.036 -0.042,-0.038 -0.045,-0.042C-0.05,-0.046 -0.052,-0.052 -0.052,-0.059C-0.052,-0.077 -0.032,-0.123 0.008,-0.197C0.029,-0.238 0.046,-0.267 0.059,-0.285C0.071,-0.303 0.082,-0.312 0.09,-0.312C0.095,-0.312 0.099,-0.31 0.103,-0.306C0.107,-0.302 0.109,-0.296 0.109,-0.291C0.109,-0.283 0.105,-0.273 0.095,-0.26C0.082,-0.24 0.07,-0.222 0.062,-0.206Z" style="fill:rgb(255,0,43);fill-rule:nonzero;"/>
            </g>
            <g transform="matrix(124.248,0,0,124.248,617.153,176)">
                <path d="M0.1,-0.331C0.105,-0.331 0.11,-0.328 0.113,-0.324C0.116,-0.321 0.117,-0.317 0.117,-0.313C0.117,-0.308 0.112,-0.298 0.103,-0.284C0.069,-0.232 0.045,-0.189 0.031,-0.155C0.015,-0.12 0.002,-0.084 -0.01,-0.047C-0.015,-0.031 -0.023,-0.023 -0.034,-0.023C-0.041,-0.023 -0.046,-0.026 -0.05,-0.031C-0.053,-0.035 -0.055,-0.04 -0.055,-0.044C-0.055,-0.054 -0.045,-0.087 -0.024,-0.142C-0.008,-0.186 0.019,-0.234 0.055,-0.287C0.067,-0.304 0.076,-0.315 0.082,-0.321C0.087,-0.327 0.093,-0.331 0.1,-0.331ZM0.192,-0.512C0.207,-0.512 0.214,-0.504 0.214,-0.489C0.214,-0.476 0.207,-0.46 0.193,-0.444C0.179,-0.428 0.166,-0.42 0.153,-0.42C0.147,-0.42 0.142,-0.422 0.138,-0.427C0.134,-0.431 0.132,-0.436 0.132,-0.442C0.132,-0.458 0.141,-0.475 0.158,-0.492C0.171,-0.505 0.182,-0.512 0.192,-0.512Z" style="fill:rgb(255,0,43);fill-rule:nonzero;"/>
            </g>
            <g transform="matrix(124.248,0,0,124.248,633.533,176)">
                <path d="M0.1,-0.331C0.105,-0.331 0.11,-0.328 0.113,-0.324C0.116,-0.321 0.117,-0.317 0.117,-0.313C0.117,-0.308 0.112,-0.298 0.103,-0.284C0.069,-0.232 0.045,-0.189 0.031,-0.155C0.015,-0.12 0.002,-0.084 -0.01,-0.047C-0.015,-0.031 -0.023,-0.023 -0.034,-0.023C-0.041,-0.023 -0.046,-0.026 -0.05,-0.031C-0.053,-0.035 -0.055,-0.04 -0.055,-0.044C-0.055,-0.054 -0.045,-0.087 -0.024,-0.142C-0.008,-0.186 0.019,-0.234 0.055,-0.287C0.067,-0.304 0.076,-0.315 0.082,-0.321C0.087,-0.327 0.093,-0.331 0.1,-0.331ZM0.192,-0.512C0.207,-0.512 0.214,-0.504 0.214,-0.489C0.214,-0.476 0.207,-0.46 0.193,-0.444C0.179,-0.428 0.166,-0.42 0.153,-0.42C0.147,-0.42 0.142,-0.422 0.138,-0.427C0.134,-0.431 0.132,-0.436 0.132,-0.442C0.132,-0.458 0.141,-0.475 0.158,-0.492C0.171,-0.505 0.182,-0.512 0.192,-0.512Z" style="fill:rgb(255,0,43);fill-rule:nonzero;"/>
            </g>
        </g>
        <g transform="matrix(1.30765,0,0,2.35294,-167.536,-341.176)">
            <path d="M210,379C210,379 262.307,316.272 440,362C617.693,407.728 632.583,398.293 726,384" style="fill:none;stroke:rgb(255,29,0);stroke-width:4.09px;"/>
        </g>
    </g>
</svg>
