<?xml version="1.0" encoding="UTF-8" standalone="no"?>
<!DOCTYPE svg PUBLIC "-//W3C//DTD SVG 1.1//EN" "http://www.w3.org/Graphics/SVG/1.1/DTD/svg11.dtd">
<svg width="100%" height="100%" viewBox="0 0 387 525" version="1.1" xmlns="http://www.w3.org/2000/svg" xmlns:xlink="http://www.w3.org/1999/xlink" xml:space="preserve" xmlns:serif="http://www.serif.com/" style="fill-rule:evenodd;clip-rule:evenodd;stroke-linejoin:round;stroke-miterlimit:2;">
    <g transform="matrix(1,0,0,1,-2359,-12)">
        <g id="_3" serif:id="3" transform="matrix(0.48375,0,0,0.875,2359,12)">
            <rect x="0" y="0" width="800" height="600" style="fill:none;"/>
            <g transform="matrix(4.48226,0,0,2.47805,-6071.94,-276.025)">
                <circle cx="1444.5" cy="181.5" r="65.5" style="fill:rgb(255,0,9);"/>
            </g>
            <g transform="matrix(2.06718,0,0,1.14286,-4876.49,-13.7143)">
                <path d="M2376.03,520.902C2375.59,516.42 2375.36,511.878 2375.36,507.282L2375.36,392.498C2375.36,346.4 2398.41,305.643 2433.59,281.14C2451.1,320.033 2498.34,347.925 2553.8,347.925C2609.26,347.925 2656.49,320.033 2674,281.14C2709.18,305.643 2732.23,346.4 2732.23,392.498L2732.23,507.282C2732.23,511.878 2732.01,516.42 2731.56,520.902L2376.03,520.902Z" style="fill:rgb(255,0,9);"/>
            </g>
        </g>
    </g>
</svg>
